<?xml version="1.0" encoding="utf-8"?>
<!-- Generator: Adobe Illustrator 25.0.0, SVG Export Plug-In . SVG Version: 6.00 Build 0)  -->
<svg version="1.1" id="Capa_1" xmlns="http://www.w3.org/2000/svg" xmlns:xlink="http://www.w3.org/1999/xlink" x="0px" y="0px"
	 viewBox="0 0 32 32" style="enable-background:new 0 0 32 32;" xml:space="preserve">
<g>
	<path d="M29.1,24.6c0.8-1.4,0.9-2.8,0.4-4.1c-0.7-1.6-2.2-2.7-3.5-3.3c1.2,0,2.3,0,3.3,0.1c1.7,0,1.8-2.4,1.9-5.4
		c0-0.5,0-1.1,0.1-1.6c0.1-1,0.2-2,0.3-3c0.3-2.3,0.4-3.6-0.1-4.1c-0.4-0.5-1.1-1-2.4-0.8c-3.7,0.8-10,7.6-12,10.9
		C17.1,13.1,17,13,16.9,13c0,0,0,0,0,0c0.5-0.8,1.4-2.3,1.8-3.5c0.1,0,0.2,0,0.2-0.1C19,9.1,19.1,9,19.2,8.8
		c0.1-0.3-0.3-0.4-0.5-0.2c-0.1,0.2-0.1,0.3-0.2,0.5c0,0.1,0,0.2,0.1,0.2c-0.4,1.1-1.3,2.6-1.8,3.4c-0.1-0.1-0.3-0.2-0.4-0.2
		c-0.1,0-0.2,0-0.3,0c-0.5-0.9-1.2-2.5-1.5-3.9c0.1,0,0.1-0.1,0.1-0.2c0-0.2-0.1-0.4-0.1-0.6c0-0.3-0.5-0.2-0.5,0.1
		c0,0.2,0.1,0.4,0.1,0.6c0,0.1,0.1,0.2,0.2,0.2c0.3,1.5,1,3,1.5,4c-0.2,0.1-0.3,0.3-0.5,0.5C13.2,10.1,6.6,3.5,3,2.9
		c-1.3-0.2-2,0.4-2.4,0.9C0.2,4.3,0.3,5.6,0.7,7.9c0.2,1,0.3,2,0.4,3c0.1,0.6,0.1,1.1,0.1,1.6c0.2,3,0.4,5.4,2.2,5.3
		c1-0.1,2.1-0.2,3.3-0.2c-1.2,0.7-2.7,1.8-3.3,3.5c-0.5,1.3-0.3,2.6,0.5,4.1c2.9,5,6.4,5.1,7.6,5.1c0.1,0,0.1,0,0.2,0
		c0.1,0,0.3,0,0.4-0.1c0.4-0.3,0.9-1,1.8-2.5c0.5-0.8,1.3-2.1,1.9-2.8c0.1,0.7,0.5,0.9,0.8,0.8c0.3,0,0.5-0.3,0.6-0.8
		c0.6,0.7,1.5,1.9,2,2.7c1,1.4,1.5,2.1,1.9,2.4c0.2,0.1,0.3,0.1,0.4,0.1c0.1,0,0.1,0,0.2,0C22.9,30,26.4,29.7,29.1,24.6z M26.7,23.3
		c-1,0.5-2.1,0.1-3-0.4c-0.5-0.3-1.1-0.5-1.6-0.7c-1.5-0.4-4.1-2.2-4.1-2.3c0.1-0.1,3.8,1,5.8,1.2c0.5,0,1,0.2,1.5,0.2
		c0.5,0,1,0,1.5-0.1C28.1,21,27.4,22.9,26.7,23.3z M17.5,16.6c0.9-1.5,3-3.1,3.8-4c1.2-1.2,2.1-2.8,3.2-4.1c1-1.2,3-1.5,2.8,0.7
		c-0.1,1.7-7.5,7.4-9.9,8.8C17.4,17.5,17.5,17,17.5,16.6z M28.3,12c2.4,2.6-4.9,5.2-5.7,3.4C22.6,15.3,26.9,10.5,28.3,12z
		 M25.5,18.5c0.3,0.2,0.8,0.9,0.7,1.3c-0.4,0.9-2.1,0.6-2.9,0.5c-0.5-0.1-1-0.2-1.5-0.3c-0.6,0-1.1,0-1.7-0.1
		c-0.5-0.1-2.2-0.5-2.1-0.7c0,0,2.1-0.2,2.5-0.4c0.4-0.2,1.2-0.3,1.9-0.5c0.6-0.2,1-0.2,1.6-0.2C24.6,18.2,25.1,18.2,25.5,18.5z
		 M29.6,15.2C29.3,15.8,29,16,28.2,16c-0.5,0-1.7-0.1-2.1-0.1c-0.1,0-0.1,0-0.1,0c0,0,0,0,0.1,0c0.2,0,0.5-0.1,0.6-0.1
		c0.3,0,0.6-0.2,0.9-0.3c0.5-0.3,0.8-0.9,1.3-1.2C29.7,13.8,29.9,14.6,29.6,15.2z M29.9,11.1c-0.1,0.6,0.1,1.6,0,2.2
		c0,0.4-0.4,0.5-0.9,0.4c-0.2,0,0.2-1.1-0.1-1.6c-0.3-0.4-0.5-0.5-0.5-0.7c0-0.3,0.4-0.5,0.6-0.6C29.5,10.6,30,10.3,29.9,11.1z
		 M29.9,9.1c-0.4,0.5-1.1,1-1.6,1.3c-0.5,0.2-1.4,1.1-1.9,1.1c0,0,1.6-2.2,2-2.6c0.3-0.3,1-1,1.4-1.1C30.6,7.7,30.2,8.8,29.9,9.1z
		 M29.9,3.8c0.8,0.4,0.9,2.5,0.1,3c-0.5,0.3-0.8,0.6-1.2,0.9c-0.2,0.2-1,1.3-1.2,1.4l0.5-3.4C28.2,5,29.1,3.3,29.9,3.8z M26,5.6
		c0.2-0.1,1.7-1.6,1.9-1.4c0.2,0.2-0.1,2.6-0.6,2.9c-0.2,0.2-0.6,0-1,0.1c-0.4,0.1-0.9,0.3-1.1,0.4c-0.1-0.3-0.1-0.6,0-0.8
		C25.4,6.3,25.7,5.9,26,5.6z M22.6,8.5C23,8,23.8,6.7,24.5,7.1c0.9,0.5-0.4,1.3-0.7,1.7c-1.9,1.9-3.4,4.1-5.5,5.7
		C18.2,14.5,21.7,9.5,22.6,8.5z M15.2,16.6c0,0.4,0.1,0.9,0.1,1.4c-2.4-1.3-10-6.7-10.2-8.3C4.7,7.5,6.8,7.8,7.8,8.9
		c1.2,1.3,2.1,2.7,3.4,3.9C12.1,13.6,14.2,15.2,15.2,16.6z M7.7,7.5c0.7-0.4,1.5,0.8,2,1.3c0.9,1,4.6,5.8,4.6,5.8
		c-2.2-1.5-3.8-3.7-5.8-5.4C8.1,8.8,6.8,8,7.7,7.5z M6.2,6C6.5,6.3,6.9,6.6,7,7.1c0.1,0.3,0.1,0.6,0,0.8c-0.1,0-0.6-0.3-1.1-0.3
		c-0.4,0-0.8,0.1-1,0C4.5,7.3,4,4.9,4.2,4.7C4.4,4.5,6,5.9,6.2,6z M2.2,7.4c-0.8-0.4-0.8-2.6,0-3C3,3.8,3.9,5.5,4.1,6.2l0.6,3.4
		c-0.1,0-1-1.1-1.2-1.3C3,7.9,2.7,7.6,2.2,7.4z M2.4,9.6C2.1,9.3,1.7,8.2,2.5,8.4C3,8.4,3.7,9.1,4,9.4c0.4,0.4,2.1,2.5,2.1,2.5
		c-0.5,0-1.5-0.8-2-1C3.5,10.6,2.9,10.1,2.4,9.6z M2.6,13.9c-0.1-0.6,0-1.6-0.1-2.2c-0.1-0.8,0.4-0.5,0.9-0.3
		C3.6,11.5,4,11.6,4,11.9c0,0.2-0.2,0.3-0.5,0.7c-0.3,0.5,0.2,1.5,0,1.6C3,14.4,2.6,14.3,2.6,13.9z M6.5,16.3
		c-0.4,0-1.6,0.2-2.1,0.2c-0.8,0-1-0.2-1.4-0.8c-0.3-0.5-0.2-1.4,0.6-1C4.2,15,4.5,15.6,5,15.9c0.3,0.2,0.5,0.3,0.9,0.3
		C6,16.2,6.4,16.3,6.5,16.3c0.1,0,0.1,0,0.1,0C6.7,16.3,6.6,16.3,6.5,16.3z M4.1,12.4c1.3-1.5,5.8,3.1,5.8,3.1
		C9.3,17.4,1.9,15.2,4.1,12.4z M7.2,18.9c0.4-0.3,0.9-0.3,1.4-0.4c0.6-0.1,1-0.1,1.6,0.1c0.6,0.2,1.4,0.2,1.9,0.4
		c0.4,0.2,2.6,0.3,2.6,0.3c0.1,0.2-1.5,0.7-2,0.8c-0.5,0.1-1.1,0.1-1.6,0.2c-0.5,0.1-1,0.2-1.5,0.3c-0.8,0.1-2.5,0.5-2.9-0.4
		C6.4,19.8,6.9,19.1,7.2,18.9z M6.1,21.5c0.5,0,1,0.1,1.5,0c0.5,0,1-0.2,1.5-0.2c2-0.2,5.6-1.5,5.7-1.4c0.1,0.1-2.5,2.1-4,2.5
		c-0.5,0.2-1.1,0.5-1.6,0.8c-0.9,0.5-2,0.9-3,0.5C5.5,23.3,4.7,21.5,6.1,21.5z M5.5,25.7c-0.2-0.5-0.9-1.1-0.7-2s2,0.9,2.2,1
		c0.4,0.2-0.3,1.4-0.3,1.4S5.8,26.2,5.5,25.7z M8.8,26.8c-0.4,0.3-0.9,0.4-1.4,0c-0.8-0.6,0.1-1.8,0.7-2.2c0.4-0.3,0.8-0.5,1.2-0.8
		c0.4-0.2,0.8-0.5,1.1-0.8c0.4-0.3,0.9-0.4,1.3-0.6c0.4-0.2,0.8-0.5,1.2-0.7c0.7-0.4,1.7-1.8,1.9-1.5c0.2,0.3-0.5,1.3-0.7,1.7
		c-0.5,0.6-1.1,1.1-1.7,1.7c-0.8,0.8-1.6,1.6-2.5,2.3C9.5,26.3,9.2,26.5,8.8,26.8z M12.6,26.6c-0.5,0.5-1.2,2.2-2,2.1
		c-1.1-0.2-0.1-2.2,0.2-2.7c0.6-0.8,1.3-1.6,2.1-2.2c0.5-0.4,1-0.9,1.5-1.4c0.3-0.3,0.5-1.3,0.6-1.1c0.5,1,0,2.3-0.5,3
		C14,25.2,13.3,25.9,12.6,26.6z M22.6,28.5c-0.9,0.2-1.6-1.5-2.1-2c-0.7-0.7-1.5-1.3-2-2.2c-0.4-0.7-1-2-0.6-3
		c0.1-0.2,0.3,0.8,0.7,1.1c0.5,0.5,1,0.9,1.5,1.3c0.8,0.5,1.6,1.3,2.2,2.1C22.6,26.3,23.7,28.2,22.6,28.5z M25.6,26.5
		c-0.4,0.4-1,0.3-1.4,0c-0.4-0.3-0.7-0.5-1.1-0.8c-0.9-0.7-1.7-1.5-2.6-2.2c-0.6-0.5-1.2-1.1-1.7-1.6c-0.3-0.3-1-1.3-0.8-1.6
		c0.1-0.3,1.3,1.1,2,1.4c0.4,0.2,0.8,0.4,1.2,0.6c0.4,0.2,0.9,0.3,1.3,0.6c0.4,0.2,0.8,0.5,1.2,0.7c0.4,0.2,0.8,0.4,1.2,0.7
		C25.4,24.8,26.4,25.9,25.6,26.5z M26.4,25.8c0,0-0.7-1.1-0.4-1.4c0.2-0.1,2-2,2.2-1.1c0.2,0.9-0.4,1.5-0.6,2
		C27.3,25.8,26.4,25.8,26.4,25.8z"/>
</g>
</svg>
